<svg width="31" height="31" viewBox="0 0 31 31" fill="none" xmlns="http://www.w3.org/2000/svg">
<path d="M15.5005 4.22728C12.4391 4.22728 12.0549 4.24067 10.8525 4.29539C9.65245 4.35034 8.83332 4.54033 8.11659 4.8191C7.37519 5.10702 6.74629 5.49217 6.11973 6.11898C5.4927 6.74556 5.10756 7.37448 4.81871 8.11567C4.53925 8.83266 4.34902 9.65204 4.29501 10.8517C4.24123 12.0541 4.22714 12.4385 4.22714 15.5C4.22714 18.5615 4.24076 18.9445 4.29525 20.147C4.35043 21.347 4.54042 22.1662 4.81894 22.8829C5.10709 23.6244 5.49223 24.2533 6.11902 24.8799C6.74535 25.5069 7.37425 25.893 8.11518 26.1809C8.83238 26.4597 9.65174 26.6497 10.8515 26.7046C12.0539 26.7593 12.4379 26.7727 15.4991 26.7727C18.5607 26.7727 18.9437 26.7593 20.1461 26.7046C21.3461 26.6497 22.1662 26.4597 22.8834 26.1809C23.6246 25.893 24.2525 25.5069 24.8789 24.8799C25.5059 24.2533 25.891 23.6244 26.1799 22.8832C26.457 22.1662 26.6472 21.3468 26.7036 20.1472C26.7576 18.9448 26.7717 18.5615 26.7717 15.5C26.7717 12.4385 26.7576 12.0543 26.7036 10.8519C26.6472 9.65181 26.457 8.83266 26.1799 8.1159C25.891 7.37448 25.5059 6.74556 24.8789 6.11898C24.2518 5.49194 23.6248 5.10679 22.8827 4.8191C22.1641 4.54033 21.3445 4.35034 20.1445 4.29539C18.9421 4.24067 18.5593 4.22728 15.4969 4.22728H15.5005ZM14.4892 6.25872C14.7894 6.25825 15.1243 6.25872 15.5005 6.25872C18.5102 6.25872 18.8669 6.26952 20.0555 6.32354C21.1545 6.37379 21.751 6.55745 22.1484 6.71174C22.6744 6.91606 23.0494 7.1603 23.4437 7.55485C23.8383 7.94939 24.0825 8.32515 24.2873 8.85121C24.4416 9.2481 24.6255 9.84462 24.6755 10.9437C24.7295 12.132 24.7412 12.489 24.7412 15.4974C24.7412 18.5058 24.7295 18.8628 24.6755 20.0511C24.6252 21.1502 24.4416 21.7467 24.2873 22.1436C24.083 22.6697 23.8383 23.0443 23.4437 23.4386C23.0492 23.8331 22.6746 24.0774 22.1484 24.2817C21.7515 24.4367 21.1545 24.6199 20.0555 24.6701C18.8672 24.7241 18.5102 24.7359 15.5005 24.7359C12.4905 24.7359 12.1338 24.7241 10.9455 24.6701C9.84643 24.6194 9.24993 24.4358 8.85234 24.2815C8.3263 24.0771 7.95055 23.8329 7.55602 23.4384C7.16148 23.0438 6.91725 22.669 6.71247 22.1427C6.55818 21.7458 6.3743 21.1493 6.32428 20.0502C6.27026 18.8619 6.25946 18.5049 6.25946 15.4946C6.25946 12.4843 6.27026 12.1292 6.32428 10.9409C6.37453 9.8418 6.55818 9.24529 6.71247 8.84792C6.91678 8.32186 7.16148 7.9461 7.55602 7.55156C7.95055 7.15701 8.3263 6.91277 8.85234 6.70798C9.24969 6.55298 9.84643 6.3698 10.9455 6.31931C11.9854 6.27234 12.3883 6.25825 14.4892 6.2559V6.25872ZM21.5176 8.13046C20.7708 8.13046 20.1649 8.73567 20.1649 9.48272C20.1649 10.2295 20.7708 10.8354 21.5176 10.8354C22.2644 10.8354 22.8703 10.2295 22.8703 9.48272C22.8703 8.7359 22.2644 8.12999 21.5176 8.12999V8.13046ZM15.5005 9.71099C12.3036 9.71099 9.71163 12.303 9.71163 15.5C9.71163 18.697 12.3036 21.2878 15.5005 21.2878C18.6974 21.2878 21.2884 18.697 21.2884 15.5C21.2884 12.303 18.6971 9.71099 15.5002 9.71099H15.5005ZM15.5005 11.7424C17.5755 11.7424 19.2579 13.4246 19.2579 15.5C19.2579 17.5751 17.5755 19.2576 15.5005 19.2576C13.4252 19.2576 11.743 17.5751 11.743 15.5C11.743 13.4246 13.4252 11.7424 15.5005 11.7424V11.7424Z" fill="#224D56"/>
</svg>
