<svg width="250" height="250" viewBox="0 0 250 250" fill="none" xmlns="http://www.w3.org/2000/svg">
<mask id="mask0_108_5" style="mask-type:alpha" maskUnits="userSpaceOnUse" x="0" y="0" width="250" height="250">
<circle cx="125" cy="125" r="125" fill="#D9D9D9"/>
</mask>
<g mask="url(#mask0_108_5)">
<circle cx="125" cy="125" r="125" fill="white"/>
<rect x="38" y="37" width="174" height="256" rx="20" fill="#224D56"/>
<rect x="54" y="64" width="121" height="204" rx="20" fill="#192B61" fill-opacity="0.3"/>
<rect x="122" y="75" width="44" height="193" rx="10" fill="white"/>
<rect x="62" y="75" width="44" height="193" rx="10" fill="white"/>
<rect x="181" y="151" width="25" height="37" rx="5" fill="#D9D9D9"/>
<path d="M84.5 44L100.521 59H68.4785L84.5 44Z" fill="#FDAE2E"/>
<path d="M143.5 60L159.521 45H127.479L143.5 60Z" fill="#FDAE2E"/>
<path d="M194 181L200.928 175H187.072L194 181Z" fill="#F04254"/>
<path d="M194 158L200.928 164H187.072L194 158Z" fill="#F04254"/>
</g>
</svg>
