<svg width="31" height="31" viewBox="0 0 31 31" fill="none" xmlns="http://www.w3.org/2000/svg">
<path fill-rule="evenodd" clip-rule="evenodd" d="M25.5384 10.448C25.5472 10.6739 25.5501 10.8997 25.5501 11.1256C25.5501 17.9743 20.7324 25.8807 11.9225 25.8807C9.21624 25.8807 6.69981 25.0181 4.57959 23.5498C4.95438 23.5909 5.33501 23.6218 5.72148 23.6218C7.96533 23.6218 10.032 22.7899 11.6713 21.3935C9.57545 21.3627 7.80569 19.8533 7.19532 17.7997C7.48834 17.8613 7.79009 17.8922 8.09868 17.8922C8.53383 17.8922 8.95631 17.8307 9.36127 17.7075C7.16804 17.2351 5.51608 15.1406 5.51608 12.6249C5.51608 12.5941 5.51608 12.5838 5.51608 12.5633C6.16246 12.9432 6.90229 13.1792 7.68788 13.21C6.40095 12.2756 5.55499 10.6842 5.55499 8.88727C5.55499 7.94263 5.79057 7.04928 6.20527 6.27919C8.56692 9.42116 12.0977 11.485 16.0783 11.7007C15.9965 11.3207 15.9546 10.9204 15.9546 10.52C15.9546 7.65522 18.0992 5.33463 20.7451 5.33463C22.1225 5.33463 23.3666 5.96106 24.2398 6.96731C25.333 6.74142 26.3571 6.31019 27.2839 5.71466C26.9247 6.92627 26.1663 7.94258 25.1753 8.57919C26.1449 8.45597 27.0697 8.17895 27.9274 7.76823C27.2839 8.80529 26.474 9.71899 25.5384 10.448Z" fill="#224D56"/>
</svg>
