<svg width="1280" height="263" viewBox="0 0 1280 263" fill="none" xmlns="http://www.w3.org/2000/svg">
<path fill-rule="evenodd" clip-rule="evenodd" d="M0 14.6118L30 28.9695C61 42.6093 122 69.8889 183 102.194C244 134.499 305 171.111 366 189.776C427 207.723 488 207.723 549 175.418C610 143.831 670 79.2214 731 42.6093C792 5.99716 853 -3.33534 914 0.971969C975 5.99716 1036 23.9443 1097 51.9418C1158 79.2214 1219 115.834 1250 134.499L1280 152.446V263H1250C1219 263 1158 263 1097 263C1036 263 975 263 914 263C853 263 792 263 731 263C670 263 610 263 549 263C488 263 427 263 366 263C305 263 244 263 183 263C122 263 61 263 30 263H0V14.6118Z" fill="#224D56"/>
</svg>
