<svg width="31" height="31" viewBox="0 0 31 31" fill="none" xmlns="http://www.w3.org/2000/svg">
<path fill-rule="evenodd" clip-rule="evenodd" d="M16.5607 3.82127C19.4396 3.96275 22.1221 5.14992 24.1711 7.2002C26.3566 9.38708 27.5595 12.294 27.5583 15.3854C27.5557 21.7648 22.3624 26.9554 15.9826 26.9554C13.5835 26.9554 11.677 26.2182 10.446 25.5471L4.30948 27.156L5.95176 21.1604C4.93875 19.4058 4.40571 17.4155 4.40654 15.3762C4.4091 8.99701 9.60201 3.80696 15.9824 3.80696L16.5607 3.82127ZM10.7303 23.4525L11.0817 23.6609C12.5589 24.5371 14.2522 25.0007 15.9787 25.0014H15.9826C21.2856 25.0014 25.6017 20.6873 25.6038 15.3847C25.6048 12.8152 24.605 10.3991 22.7885 8.5814C20.9719 6.76361 18.5563 5.76195 15.9864 5.76112C10.6793 5.76112 6.36312 10.0747 6.361 15.3769C6.36028 17.194 6.86893 18.9637 7.83204 20.4947L8.0608 20.8586L7.08883 24.4072L10.7303 23.4525ZM21.8144 18.1367C21.7421 18.0161 21.5493 17.9438 21.26 17.799C20.9708 17.6543 19.5488 16.955 19.2836 16.8584C19.0185 16.762 18.8257 16.7138 18.6329 17.0032C18.4401 17.2925 17.8858 17.9438 17.717 18.1367C17.5483 18.3297 17.3796 18.3538 17.0904 18.2091C16.8012 18.0644 15.8692 17.7591 14.7644 16.7742C13.9045 16.0076 13.324 15.0609 13.1553 14.7715C12.9866 14.4821 13.1373 14.3256 13.2821 14.1815C13.4122 14.0519 13.5714 13.8438 13.716 13.675C13.8606 13.5062 13.9088 13.3856 14.0053 13.1927C14.1017 12.9997 14.0534 12.831 13.9812 12.6863C13.9088 12.5415 13.3304 11.1185 13.0894 10.5396C12.8545 9.97595 12.6161 10.0523 12.4386 10.0434C12.27 10.035 12.077 10.0332 11.8842 10.0332C11.6914 10.0332 11.378 10.1055 11.1129 10.395C10.8478 10.6843 10.1006 11.3838 10.1006 12.8067C10.1006 14.2298 11.137 15.6043 11.2816 15.7973C11.4263 15.9903 13.3212 18.9102 16.2227 20.1626C16.9128 20.4605 17.4515 20.6383 17.8716 20.7716C18.5645 20.9916 19.195 20.9606 19.6934 20.8861C20.2491 20.8031 21.4047 20.1867 21.6457 19.5115C21.8867 18.8361 21.8867 18.2573 21.8144 18.1367Z" fill="#224D56"/>
</svg>
